<svg width="24" height="23" viewBox="0 0 24 23" fill="none" xmlns="http://www.w3.org/2000/svg">
<path d="M17.8183 0.187927H6.54554C3.43427 0.187927 0.90918 2.69848 0.90918 5.79445V12.5268V13.6526C0.90918 16.7486 3.43427 19.2591 6.54554 19.2591H8.23645C8.54082 19.2591 8.94664 19.4618 9.13827 19.7094L10.8292 21.9498C11.5732 22.9405 12.7906 22.9405 13.5346 21.9498L15.2255 19.7094C15.4397 19.428 15.7779 19.2591 16.1274 19.2591H17.8183C20.9295 19.2591 23.4546 16.7486 23.4546 13.6526V5.79445C23.4546 2.69848 20.9295 0.187927 17.8183 0.187927ZM7.67282 11.446C7.04154 11.446 6.54554 10.9394 6.54554 10.3202C6.54554 9.70101 7.05282 9.1944 7.67282 9.1944C8.29282 9.1944 8.80009 9.70101 8.80009 10.3202C8.80009 10.9394 8.30409 11.446 7.67282 11.446ZM12.1819 11.446C11.5506 11.446 11.0546 10.9394 11.0546 10.3202C11.0546 9.70101 11.5619 9.1944 12.1819 9.1944C12.8019 9.1944 13.3092 9.70101 13.3092 10.3202C13.3092 10.9394 12.8132 11.446 12.1819 11.446ZM16.691 11.446C16.0597 11.446 15.5637 10.9394 15.5637 10.3202C15.5637 9.70101 16.071 9.1944 16.691 9.1944C17.311 9.1944 17.8183 9.70101 17.8183 10.3202C17.8183 10.9394 17.3223 11.446 16.691 11.446Z" fill="#DCDCDC"/>
</svg>
