<svg width="21" height="16" viewBox="0 0 21 16" fill="none" xmlns="http://www.w3.org/2000/svg">
<path d="M16.6484 6.7752C16.1276 7.28562 15.8776 8.04604 16.0859 8.8377C16.3568 9.80645 17.3047 10.421 18.3047 10.421H19.2109C19.7839 10.421 20.2526 10.8898 20.2526 11.4627V11.6606C20.2526 13.8169 18.4922 15.5773 16.3359 15.5773H4.3776C2.22135 15.5773 0.460938 13.8169 0.460938 11.6606V4.6502C0.460938 3.36895 1.07552 2.23354 2.02344 1.5252C2.67969 1.0252 3.49219 0.733536 4.3776 0.733536H16.3359C18.4922 0.733536 20.2526 2.49395 20.2526 4.6502V5.10854C20.2526 5.68145 19.7839 6.1502 19.2109 6.1502H18.1484C17.5651 6.1502 17.0339 6.37937 16.6484 6.7752Z" fill="#DCDCDC"/>
</svg>
