<svg width="25" height="25" viewBox="0 0 25 25" fill="none" xmlns="http://www.w3.org/2000/svg">
<path d="M12.8496 19.4125V20.2925C12.8496 22.1625 12.0996 22.9125 10.2196 22.9125H5.46961C4.01961 22.9125 2.84961 21.7425 2.84961 20.2925V15.5425C2.84961 13.6625 3.59961 12.9125 5.46961 12.9125H6.34961V16.4125C6.34961 18.0725 7.68961 19.4125 9.34961 19.4125H12.8496Z" fill="#DCDCDC"/>
<path d="M17.8496 14.4125V15.2825C17.8496 16.7325 16.6696 17.9125 15.2196 17.9125H10.4696C8.59961 17.9125 7.84961 17.1625 7.84961 15.2825V10.5325C7.84961 9.08248 9.01961 7.91248 10.4696 7.91248H11.3496V11.4125C11.3496 13.0725 12.6896 14.4125 14.3496 14.4125H17.8496Z" fill="#DCDCDC"/>
<path d="M22.8496 5.53248V10.2825C22.8496 12.1625 22.0996 12.9125 20.2196 12.9125H15.4696C13.5996 12.9125 12.8496 12.1625 12.8496 10.2825V5.53248C12.8496 3.66248 13.5996 2.91248 15.4696 2.91248H20.2196C22.0996 2.91248 22.8496 3.66248 22.8496 5.53248Z" fill="#DCDCDC"/>
</svg>
