<svg width="26" height="26" viewBox="0 0 26 26" fill="none" xmlns="http://www.w3.org/2000/svg">
<path d="M8.32943 2.85425H6.35026C4.06901 2.85425 2.87109 4.02919 2.87109 6.25646V8.19767C2.87109 10.4249 4.06901 11.5999 6.33984 11.5999H8.31901C10.5898 11.5999 11.7878 10.4249 11.7878 8.19767V6.25646C11.7982 4.02919 10.6003 2.85425 8.32943 2.85425Z" fill="white"/>
<path d="M20.236 2.85425H18.2568C15.986 2.85425 14.7881 4.02919 14.7881 6.25646V8.19767C14.7881 10.4249 15.986 11.5999 18.2568 11.5999H20.236C22.5068 11.5999 23.7048 10.4249 23.7048 8.19767V6.25646C23.7048 4.02919 22.5068 2.85425 20.236 2.85425Z" fill="white"/>
<path d="M20.236 14.5321H18.2568C15.986 14.5321 14.7881 15.707 14.7881 17.9343V19.8755C14.7881 22.1028 15.986 23.2777 18.2568 23.2777H20.236C22.5068 23.2777 23.7048 22.1028 23.7048 19.8755V17.9343C23.7048 15.707 22.5068 14.5321 20.236 14.5321Z" fill="white"/>
<path d="M8.32943 14.5321H6.35026C4.06901 14.5321 2.87109 15.707 2.87109 17.9343V19.8755C2.87109 22.113 4.06901 23.288 6.33984 23.288H8.31901C10.5898 23.288 11.7878 22.113 11.7878 19.8857V17.9445C11.7982 15.707 10.6003 14.5321 8.32943 14.5321Z" fill="white"/>
</svg>
