<svg width="20" height="20" viewBox="0 0 20 20" fill="none" xmlns="http://www.w3.org/2000/svg">
<path d="M19.9092 7.68107V13.7611C19.9092 13.9011 19.8992 14.0411 19.8892 14.1711C19.8792 14.2911 19.8692 14.4011 19.8492 14.5211C19.8392 14.6411 19.8192 14.7611 19.7992 14.8711C19.4492 17.2911 17.9092 18.8211 15.4992 19.1711C15.3892 19.1911 15.2692 19.2111 15.1492 19.2211C15.0292 19.2411 14.9192 19.2511 14.7992 19.2611C14.6692 19.2711 14.5292 19.2811 14.3892 19.2811H6.42918C6.28918 19.2811 6.14918 19.2711 6.01918 19.2611C5.89918 19.2511 5.78918 19.2411 5.66918 19.2211C5.54918 19.2111 5.42918 19.1911 5.31918 19.1711C2.90918 18.8211 1.36918 17.2911 1.01918 14.8711C0.99918 14.7611 0.97918 14.6411 0.96918 14.5211C0.94918 14.4011 0.93918 14.2911 0.92918 14.1711C0.91918 14.0411 0.90918 13.9011 0.90918 13.7611V5.80107C0.90918 5.66107 0.91918 5.52107 0.92918 5.39107C0.93918 5.27107 0.94918 5.16107 0.96918 5.04107C0.97918 4.92107 0.99918 4.80107 1.01918 4.69107C1.36918 2.27107 2.90918 0.741067 5.31918 0.391067C5.42918 0.371067 5.54918 0.351067 5.66918 0.341067C5.78918 0.321067 5.89918 0.311067 6.01918 0.301067C6.14918 0.291067 6.28918 0.281067 6.42918 0.281067H12.5092C13.1492 0.281067 13.6092 0.861067 13.4892 1.48107C13.4892 1.50107 13.4792 1.52107 13.4792 1.54107C13.4592 1.64107 13.4492 1.74107 13.4292 1.85107C13.3892 2.27107 13.4092 2.72107 13.4992 3.18107C13.5292 3.30107 13.5492 3.40107 13.5892 3.51107C13.6692 3.84107 13.7992 4.15107 13.9692 4.44107C14.0292 4.56107 14.1092 4.68107 14.1792 4.79107C14.5092 5.27107 14.9192 5.68107 15.3992 6.01107C15.5092 6.08107 15.6292 6.16107 15.7492 6.22107C16.0392 6.39107 16.3492 6.52107 16.6792 6.60107C16.7892 6.64107 16.8892 6.66107 17.0092 6.69107C17.4692 6.78107 17.9192 6.80107 18.3392 6.76107C18.4492 6.74107 18.5492 6.73107 18.6492 6.71107C18.6692 6.71107 18.6892 6.70107 18.7092 6.70107C19.3292 6.58107 19.9092 7.04107 19.9092 7.68107Z" fill="#DCDCDC"/>
</svg>
