<svg width="25" height="25" viewBox="0 0 25 25" fill="none" xmlns="http://www.w3.org/2000/svg">
<path d="M17.6797 16.2771C18.3497 15.8371 19.2297 16.3171 19.2297 17.1171V18.4071C19.2297 19.6771 18.2397 21.0371 17.0497 21.4371L13.8597 22.4971C13.2997 22.6871 12.3897 22.6871 11.8397 22.4971L8.64973 21.4371C7.44973 21.0371 6.46973 19.6771 6.46973 18.4071V17.1071C6.46973 16.3171 7.34973 15.8371 8.00973 16.2671L10.0697 17.6071C10.8597 18.1371 11.8597 18.3971 12.8597 18.3971C13.8597 18.3971 14.8597 18.1371 15.6497 17.6071L17.6797 16.2771Z" fill="#DCDCDC"/>
<path d="M20.8291 7.09708L14.8391 3.16708C13.7591 2.45708 11.9791 2.45708 10.8991 3.16708L4.87914 7.09708C2.94914 8.34708 2.94914 11.1771 4.87914 12.4371L6.47914 13.4771L10.8991 16.3571C11.9791 17.0671 13.7591 17.0671 14.8391 16.3571L19.2291 13.4771L20.5991 12.5771V15.6371C20.5991 16.0471 20.9391 16.3871 21.3491 16.3871C21.7591 16.3871 22.0991 16.0471 22.0991 15.6371V10.7171C22.4991 9.42708 22.0891 7.92708 20.8291 7.09708Z" fill="#DCDCDC"/>
</svg>
