<svg width="19" height="21" viewBox="0 0 19 21" fill="none" xmlns="http://www.w3.org/2000/svg">
<path d="M17.298 4.21163L11.358 0.781633C10.388 0.221633 9.18801 0.221633 8.20801 0.781633L2.27801 4.21163C1.30801 4.77163 0.708008 5.81163 0.708008 6.94163V13.7816C0.708008 14.9016 1.30801 15.9416 2.27801 16.5116L8.21801 19.9416C9.18801 20.5016 10.388 20.5016 11.368 19.9416L17.308 16.5116C18.278 15.9516 18.878 14.9116 18.878 13.7816V6.94163C18.868 5.81163 18.268 4.78163 17.298 4.21163ZM9.78801 5.70163C11.078 5.70163 12.118 6.74163 12.118 8.03163C12.118 9.32163 11.078 10.3616 9.78801 10.3616C8.49801 10.3616 7.45801 9.32163 7.45801 8.03163C7.45801 6.75163 8.49801 5.70163 9.78801 5.70163ZM12.468 15.0216H7.10801C6.29801 15.0216 5.82801 14.1216 6.27801 13.4516C6.95801 12.4416 8.27801 11.7616 9.78801 11.7616C11.298 11.7616 12.618 12.4416 13.298 13.4516C13.748 14.1116 13.268 15.0216 12.468 15.0216Z" fill="#DCDCDC"/>
</svg>
